<svg xmlns="http://www.w3.org/2000/svg" viewBox="0 0 24 24" width="24" height="24" aria-hidden="true">
  <path fill="#FFFFFF" d="M17.472 14.382c-.297-.149-1.758-.867-2.03-.967-.272-.099-.47-.149-.669.15-.198.297-.767.966-.94 1.164-.173.198-.347.223-.644.074-.297-.149-1.255-.462-2.39-1.475-.883-.788-1.48-1.76-1.653-2.057-.173-.297-.018-.458.13-.606.134-.133.297-.347.446-.52.149-.173.198-.297.298-.495.099-.198.05-.372-.025-.521-.075-.149-.669-1.614-.916-2.211-.242-.579-.487-.5-.669-.51-.173-.009-.372-.011-.571-.011-.198 0-.52.074-.793.372-.272.297-1.04 1.016-1.04 2.479 0 1.462 1.065 2.875 1.213 3.074.149.198 2.099 3.2 5.076 4.487.709.306 1.262.489 1.693.626.711.226 1.358.194 1.872.118.571-.085 1.758-.719 2.006-1.413.248-.694.248-1.289.173-1.413-.074-.124-.272-.198-.57-.347m-5.421 6.403h-.002A8.963 8.963 0 0 1 3.6 3.6a8.963 8.963 0 0 1 12.708.002 8.963 8.963 0 0 1-.002 12.708 8.93 8.93 0 0 1-4.255 2.475l-.144.034-.146.03-.099.021-.1.018-.127.018-.127.015-.141.014-.141.01-.213.01-.213.005z"/>
</svg>